<?xml version="1.0" standalone="no"?>
<!DOCTYPE svg PUBLIC "-//W3C//DTD SVG 20010904//EN"
 "http://www.w3.org/TR/2001/REC-SVG-20010904/DTD/svg10.dtd">
<svg version="1.0" xmlns="http://www.w3.org/2000/svg"
 width="700.000000pt" height="700.000000pt" viewBox="0 0 700.000000 700.000000"
 preserveAspectRatio="xMidYMid meet">
<metadata>
Created by potrace 1.14, written by Peter Selinger 2001-2017
</metadata>
<g transform="translate(0.000000,700.000000) scale(0.100000,-0.100000)"
fill="#000000" stroke="none">
<path d="M1690 6707 c-3 -3 -23 -7 -45 -10 -22 -3 -58 -12 -81 -20 -238 -85
-392 -298 -396 -547 -3 -176 77 -343 219 -459 228 -186 578 -165 781 49 106
112 163 250 162 400 0 88 -4 114 -31 197 -56 172 -205 312 -389 367 -52 16
-211 32 -220 23z"/>
<path d="M3410 6703 c-137 -21 -300 -121 -381 -235 -101 -141 -135 -316 -94
-488 13 -58 59 -151 102 -208 156 -206 442 -284 683 -186 136 55 253 169 314
307 122 276 5 607 -264 748 -25 13 -47 24 -50 24 -3 1 -12 5 -20 8 -61 27
-209 42 -290 30z"/>
<path d="M5113 6689 c-93 -24 -150 -51 -216 -102 -118 -92 -199 -225 -222
-364 -7 -46 -8 -159 0 -193 3 -14 8 -40 11 -58 3 -18 10 -35 15 -38 5 -3 7 -9
5 -13 -3 -4 10 -33 27 -65 109 -196 295 -309 507 -310 100 0 138 6 217 35 142
53 260 164 323 305 111 244 41 527 -170 696 -67 53 -156 94 -245 113 -94 19
-161 18 -252 -6z"/>
<path d="M1679 4955 c-2 -2 -20 -6 -39 -9 -134 -21 -287 -120 -366 -236 -122
-180 -140 -394 -48 -585 126 -263 427 -393 703 -304 171 55 312 193 370 361
109 318 -68 659 -393 753 -51 15 -218 30 -227 20z"/>
<path d="M3410 4953 c-42 -7 -152 -45 -189 -66 -389 -222 -406 -763 -33 -1003
209 -135 506 -114 691 48 60 53 110 120 146 193 109 229 59 497 -128 675 -58
55 -175 120 -252 140 -50 13 -187 20 -235 13z"/>
<path d="M5135 4945 c-187 -41 -342 -164 -415 -328 -111 -250 -35 -546 180
-708 252 -190 624 -138 814 114 52 69 101 181 112 255 5 37 5 172 0 197 -27
124 -87 234 -172 318 -49 48 -153 117 -178 117 -6 0 -16 4 -21 9 -34 30 -229
46 -320 26z"/>
<path d="M1665 3203 c-296 -57 -495 -287 -496 -573 -1 -531 644 -787 1007
-400 261 277 183 734 -154 908 -110 57 -259 84 -357 65z"/>
<path d="M3399 3201 c-144 -27 -296 -124 -378 -244 -188 -274 -112 -647 170
-825 50 -32 141 -69 197 -79 60 -12 203 -8 257 6 173 47 335 191 395 349 121
322 -36 660 -356 768 -84 28 -207 39 -285 25z"/>
<path d="M5113 3190 c-274 -72 -452 -305 -444 -581 2 -78 3 -83 30 -170 43
-137 151 -261 284 -328 103 -52 179 -69 287 -65 350 11 604 318 555 673 -8 63
-46 159 -86 221 -135 209 -392 311 -626 250z"/>
<path d="M3365 1440 c-121 -32 -219 -88 -293 -169 -95 -104 -154 -253 -154
-391 -1 -277 186 -509 463 -576 61 -15 195 -11 262 8 308 85 485 364 427 674
-60 323 -390 536 -705 454z"/>
</g>
</svg>
